<svg xmlns="http://www.w3.org/2000/svg" viewBox="0 0 256 256">
<defs>
<linearGradient id="s" x1="0" y1="0" x2="1" y2="1"><stop offset="0" stop-color="#071d39"/><stop offset="1" stop-color="#123f73"/></linearGradient>
<linearGradient id="b" x1="0" y1="0" x2="1" y2="1"><stop offset="0" stop-color="#1a8cff"/><stop offset="1" stop-color="#0a55b8"/></linearGradient>
</defs>
<rect width="256" height="256" fill="none"/>
<path fill="url(#s)" d="M127 28c-27 0-47 22-47 51 0 31 20 57 47 57 26 0 47-26 47-57 0-29-20-51-47-51Z"/>
<path fill="url(#s)" d="M78 225c0-41 18-70 49-82l25 23 25-23c23 9 39 27 46 53l-41 8-20 21H78Z"/>
<path fill="url(#b)" d="m118 149 10 12 10-12 14 16-13 18 10 42h-42l10-42-13-18Z"/>
<path fill="url(#s)" d="M139 172h77c8 0 14 6 14 14v37c0 8-6 14-14 14h-77c-8 0-14-6-14-14v-37c0-8 6-14 14-14Z"/>
<path fill="none" stroke="#fff" stroke-width="6" stroke-linecap="round" d="M154 172v-10h46v10M126 194c22 12 81 12 103 0"/>
<rect x="171" y="199" width="18" height="16" rx="4" fill="#0a55b8"/>
<g transform="translate(173 119)">
<circle cx="34" cy="34" r="27" fill="url(#b)"/>
<circle cx="34" cy="34" r="11" fill="#fff"/>
<g fill="url(#b)">
<rect x="30" y="-1" width="8" height="16" rx="3"/><rect x="30" y="53" width="8" height="16" rx="3"/>
<rect x="-1" y="30" width="16" height="8" rx="3"/><rect x="53" y="30" width="16" height="8" rx="3"/>
<rect x="6" y="6" width="8" height="16" rx="3" transform="rotate(-45 10 14)"/><rect x="54" y="46" width="8" height="16" rx="3" transform="rotate(-45 58 54)"/>
<rect x="46" y="6" width="8" height="16" rx="3" transform="rotate(45 50 14)"/><rect x="6" y="46" width="8" height="16" rx="3" transform="rotate(45 10 54)"/>
</g></g>
</svg>